<?xml version="1.0" standalone="no"?>
<!DOCTYPE svg PUBLIC "-//W3C//DTD SVG 20010904//EN"
 "http://www.w3.org/TR/2001/REC-SVG-20010904/DTD/svg10.dtd">
<svg version="1.0" xmlns="http://www.w3.org/2000/svg"
 width="189.000000pt" height="189.000000pt" viewBox="0 0 189.000000 189.000000"
 preserveAspectRatio="xMidYMid meet">

<g transform="translate(0.000000,189.000000) scale(0.100000,-0.100000)"
fill="#000000" stroke="none">
<path d="M677 1676 c-21 -8 -48 -22 -59 -33 -28 -24 -58 -91 -58 -128 0 -43
33 -108 68 -136 l30 -24 -9 -164 c-5 -90 -10 -165 -11 -166 -2 -1 -29 26 -60
60 -55 60 -57 63 -48 96 19 64 -14 141 -76 180 -28 17 -46 21 -93 17 -102 -7
-157 -71 -149 -173 5 -62 35 -108 87 -134 35 -19 41 -29 136 -258 54 -131 104
-252 112 -270 l13 -32 -44 -20 c-86 -38 -114 -92 -115 -223 l-1 -88 551 0 551
0 -4 103 c-4 128 -22 163 -103 203 l-54 26 15 37 c8 20 59 141 112 270 93 223
99 234 134 252 112 57 120 223 14 288 -66 41 -174 20 -219 -43 -18 -25 -22
-45 -22 -102 l-1 -71 -56 -63 -56 -63 -6 109 c-3 60 -8 137 -10 171 -3 58 -2
62 26 83 58 43 83 136 54 203 -27 67 -120 116 -189 102 -129 -28 -182 -169
-105 -278 11 -14 6 -38 -31 -147 -25 -72 -47 -130 -50 -130 -3 0 -26 58 -50
129 l-44 128 20 34 c29 48 36 90 23 140 -15 53 -64 104 -115 118 -50 14 -61
13 -108 -3z m133 -54 c63 -46 74 -132 24 -192 l-26 -30 68 -195 c38 -107 71
-195 74 -195 4 0 37 88 74 195 l68 194 -29 37 c-53 71 -31 157 51 198 111 55
234 -81 164 -184 -13 -19 -36 -41 -52 -49 -27 -13 -28 -15 -22 -75 3 -33 8
-136 12 -228 4 -93 9 -168 13 -168 3 0 50 48 104 105 l99 106 -16 38 c-50 127
120 225 208 120 20 -24 26 -41 26 -81 0 -44 -4 -54 -34 -84 -19 -19 -43 -34
-54 -34 -21 0 -13 17 -181 -385 l-79 -190 -49 2 c-54 1 -518 1 -602 -1 l-53
-1 -117 282 c-111 270 -117 283 -148 293 -113 39 -111 208 3 239 104 29 193
-80 143 -176 -11 -20 -2 -32 92 -132 l104 -110 7 132 c3 73 9 178 12 234 l6
102 -27 13 c-37 18 -73 74 -73 113 0 42 36 95 80 118 41 21 92 17 130 -11z
m440 -1143 c160 -19 210 -64 210 -191 l0 -68 -510 0 -510 0 0 68 c0 113 39
160 151 183 118 24 486 29 659 8z"/>
</g>
</svg>
